<svg xmlns="http://www.w3.org/2000/svg" aria-hidden="true" style="position:absolute;width:0;height:0;overflow:hidden">
  <defs>
    <symbol id="close" viewBox="0 0 32 32">
      <path d="M25.592 8.556a1.52 1.52 0 0 0-2.149-2.149l-7.444 7.444-7.444-7.444a1.52 1.52 0 0 0-2.149 2.149L13.85 16l-7.444 7.444a1.52 1.52 0 0 0 2.149 2.149l7.444-7.444 7.444 7.444a1.52 1.52 0 0 0 2.149-2.149L18.148 16l7.444-7.444z"/>
    </symbol>
    <symbol id="menu" viewBox="0 0 32 32">
      <path d="M4 22.667C4 23.403 4.597 24 5.333 24h21.333a1.333 1.333 0 0 0 0-2.666H5.333c-.736 0-1.333.597-1.333 1.333zM4 16c0 .736.597 1.333 1.333 1.333h21.333a1.333 1.333 0 0 0 0-2.666H5.333C4.597 14.667 4 15.264 4 16zm1.333-8a1.333 1.333 0 0 0 0 2.666h21.333a1.333 1.333 0 0 0 0-2.666H5.333z"/>
    </symbol>
    <symbol id="sound-waves" viewBox="0 0 27 32">
      <path d="M3.208 11.789c.354 0 .642.287.642.642v7.138a.642.642 0 0 1-1.284 0v-7.138c0-.354.287-.642.642-.642zM.642 13.895c.354 0 .642.287.642.642v2.927a.642.642 0 0 1-1.284 0v-2.927c0-.354.287-.642.642-.642zM26.306 13.895c.354 0 .642.287.642.642v2.927a.642.642 0 0 1-1.284 0v-2.927c0-.354.287-.642.642-.642zM5.774 10.526c.354 0 .642.287.642.642v9.664a.642.642 0 0 1-1.284 0v-9.664c0-.354.287-.642.642-.642zM8.341 6.737c.354 0 .642.287.642.642v17.243a.642.642 0 0 1-1.284 0V7.379c0-.354.287-.642.642-.642zM10.907 9.263c.354 0 .642.287.642.642v12.19a.642.642 0 0 1-1.284 0V9.905c0-.354.287-.642.642-.642zM13.474 2.526c.354 0 .642.287.642.642v25.664a.642.642 0 0 1-1.284 0V3.168c0-.354.287-.642.642-.642zM16.04 0c.354 0 .642.287.642.642v30.717a.642.642 0 0 1-1.284 0V.642c0-.354.287-.642.642-.642zM18.606 6.737c.354 0 .642.287.642.642v17.243a.642.642 0 0 1-1.284 0V7.379c0-.354.287-.642.642-.642zM21.173 9.684c.354 0 .642.287.642.642v11.348a.642.642 0 0 1-1.284 0V10.326c0-.354.287-.642.642-.642zM23.739 11.368c.354 0 .642.287.642.642v7.98a.642.642 0 0 1-1.284 0v-7.98c0-.354.287-.642.642-.642z"/>
    </symbol>
    <symbol id="icon-Vector" viewBox="0 0 40 32">
      <path fill="#f4f4fd" d="M33.782 1.02a3.668 3.668 0 0 1 5.115.039 3.712 3.712 0 0 1 .135 5.141L19.454 30.817a3.674 3.674 0 0 1-4.074.914 3.675 3.675 0 0 1-1.226-.815L1.17 17.862A3.693 3.693 0 0 1-.001 15.22a3.714 3.714 0 0 1 1.077-2.682 3.664 3.664 0 0 1 4.1-.763 3.68 3.68 0 0 1 1.195.857l10.275 10.325 17.042-21.83c.031-.038.063-.074.098-.109h-.005z" style="fill:var(--color1, #f4f4fd)"/>
    </symbol>
  </defs>
</svg>